<?xml version="1.0" encoding="UTF-8"?>
<svg width="362px" height="414px" viewBox="0 0 362 414" version="1.1" xmlns="http://www.w3.org/2000/svg" xmlns:xlink="http://www.w3.org/1999/xlink">
    <g stroke="none" stroke-width="1" fill="none" fill-rule="evenodd">
        <g transform="translate(1.000000, 0.000000)">
            <rect fill="#E6E6E6" x="130" y="257" width="49" height="156"></rect>
            <rect fill="#E6E6E6" x="0" y="101" width="129" height="155"></rect>
            <rect fill="#E6E6E6" x="178" y="101" width="48" height="156"></rect>
            <rect fill="#E6E6E6" x="227" y="257" width="117" height="157"></rect>
            <path d="M178.882134,99.6769926 L178.935788,99.7548694 L183.435788,107.754869 C183.57117,107.995548 183.48581,108.300406 183.245131,108.435788 C183.031194,108.556127 182.766548,108.502053 182.615296,108.319515 L182.564212,108.245131 L179,101.908 L179,412.5 C179,412.776142 178.776142,413 178.5,413 C178.25454,413 178.050392,412.823125 178.008056,412.589876 L178,412.5 L178,101.908 L174.435788,108.245131 C174.315448,108.459067 174.061202,108.550283 173.837152,108.472829 L173.754869,108.435788 C173.540933,108.315448 173.449717,108.061202 173.527171,107.837152 L173.564212,107.754869 L178.064212,99.7548694 C178.239435,99.4433624 178.665161,99.4174034 178.882134,99.6769926 Z" fill="#BABABA" fill-rule="nonzero"></path>
            <text font-size="13" font-weight="normal" fill="#BABABA">
                <tspan x="353.5" y="277">x</tspan>
            </text>
            <path d="M352.662848,251.527171 L352.745131,251.564212 L360.745131,256.064212 C361.056638,256.239435 361.082597,256.665161 360.823007,256.882134 L360.745131,256.935788 L352.745131,261.435788 C352.504452,261.57117 352.199594,261.48581 352.064212,261.245131 C351.943873,261.031194 351.997947,260.766548 352.180485,260.615296 L352.254869,260.564212 L358.591,257 L0,257 C-0.276142375,257 -0.5,256.776142 -0.5,256.5 C-0.5,256.25454 -0.323124839,256.050392 -0.0898756324,256.008056 L0,256 L358.591,256 L352.254869,252.435788 C352.040933,252.315448 351.949717,252.061202 352.027171,251.837152 L352.064212,251.754869 C352.184552,251.540933 352.438798,251.449717 352.662848,251.527171 Z" fill="#BABABA" fill-rule="nonzero"></path>
            <text font-size="13" font-weight="normal" fill="#BABABA">
                <tspan x="158.5" y="108">y</tspan>
            </text>
            <line x1="129.5" y1="412" x2="129.5" y2="244.5" stroke="#BABABA" stroke-linecap="round" stroke-linejoin="round" stroke-dasharray="4"></line>
            <line x1="129.5" y1="225.5" x2="129.5" y2="100" stroke="#BABABA" stroke-linecap="round" stroke-linejoin="round" stroke-dasharray="4"></line>
            <line x1="35.5" y1="54.5" x2="35.5" y2="93" stroke="#BABABA" stroke-linecap="round"></line>
            <text font-size="11" font-weight="normal" line-spacing="13" fill="#636363">
                <tspan x="7" y="11">灰色区域表示函数不可能出现的位置。</tspan>
                <tspan x="7" y="24">函数只存在于白色区域。标记点</tspan>
                <tspan x="7" y="37">(−2√3, −3√3) 与 (2√3, 3√3) 分别是</tspan>
                <tspan x="7" y="50">局部最大值点和局部最小值点。</tspan>
            </text>
            <line x1="226.5" y1="413" x2="226.5" y2="245.5" stroke="#BABABA" stroke-linecap="round" stroke-linejoin="round" stroke-dasharray="4"></line>
            <line x1="226.5" y1="226.5" x2="226.5" y2="101" stroke="#BABABA" stroke-linecap="round" stroke-linejoin="round" stroke-dasharray="4"></line>
            <text font-size="11" font-weight="400" fill="#333333">
                <tspan x="119" y="241">- 2</tspan>
            </text>
            <text font-size="11" font-weight="400" fill="#333333">
                <tspan x="151" y="159">3√3</tspan>
            </text>
            <text font-size="11" font-weight="400" fill="#333333">
                <tspan x="249" y="272">2√3</tspan>
            </text>
            <text font-size="11" font-weight="400" fill="#333333">
                <tspan x="84" y="245">-2√3</tspan>
            </text>
            <text font-size="11" font-weight="400" fill="#333333">
                <tspan x="186" y="358">- 3√3</tspan>
            </text>
            <text font-size="11" font-weight="400" fill="#333333">
                <tspan x="223" y="241">2</tspan>
            </text>
            <text font-size="11" font-weight="400" fill="#333333">
                <tspan x="307" y="127">y=x</tspan>
            </text>
            <circle stroke="#BABABA" fill="#F4EFEE" cx="129.5" cy="256.5" r="3"></circle>
            <circle stroke="#BABABA" fill="#F4EFEE" cx="226" cy="256.5" r="3"></circle>
            <line x1="22.5" y1="412.5" x2="305.5" y2="131.5" stroke="#BABABA" stroke-linecap="round" stroke-linejoin="round" stroke-dasharray="4"></line>
            <line x1="318.846861" y1="116.69688" x2="334.5" y2="101.5" stroke="#BABABA" stroke-linecap="round" stroke-linejoin="round" stroke-dasharray="4"></line>
            <circle fill="#333333" cx="259.5" cy="156.5" r="2.5"></circle>
            <line x1="178.5" y1="156.5" x2="258.5" y2="156.5" stroke="#BABABA" stroke-linecap="square" stroke-dasharray="4"></line>
            <line x1="259.5" y1="254.5" x2="259.5" y2="156.5" stroke="#BABABA" stroke-linecap="square" stroke-dasharray="4"></line>
            <circle fill="#333333" cx="259.5" cy="156.5" r="2.5"></circle>
            <line x1="98.5" y1="354.5" x2="178.5" y2="354.5" stroke="#BABABA" stroke-linecap="square" stroke-dasharray="4" transform="translate(138.500000, 354.500000) scale(-1, -1) translate(-138.500000, -354.500000) "></line>
            <line x1="97.5" y1="354.5" x2="97.5" y2="256.5" stroke="#BABABA" stroke-linecap="square" stroke-dasharray="4" transform="translate(97.500000, 305.500000) scale(-1, -1) translate(-97.500000, -305.500000) "></line>
            <circle fill="#333333" transform="translate(97.500000, 354.500000) scale(-1, -1) translate(-97.500000, -354.500000) " cx="97.5" cy="354.5" r="2.5"></circle>
        </g>
    </g>
</svg>
