<?xml version="1.0" encoding="UTF-8"?>
<svg width="338px" height="214px" viewBox="0 0 338 214" version="1.1" xmlns="http://www.w3.org/2000/svg" xmlns:xlink="http://www.w3.org/1999/xlink">
    <g stroke="none" stroke-width="1" fill="none" fill-rule="evenodd">
        <g>
            <line x1="22.5" y1="173.5" x2="324.5" y2="173.5" stroke="#999999" stroke-linecap="square" stroke-dasharray="4"></line>
            <text font-size="11" font-weight="normal" fill="#BABABA">
                <tspan x="5" y="177">2</tspan>
            </text>
            <text font-size="11" font-weight="normal" fill="#BABABA">
                <tspan x="5" y="135">6</tspan>
            </text>
            <text font-size="11" font-weight="normal" fill="#BABABA">
                <tspan x="0" y="94">10</tspan>
            </text>
            <text font-size="11" font-weight="normal" fill="#BABABA">
                <tspan x="1" y="54">14</tspan>
            </text>
            <text font-size="11" font-weight="normal" fill="#BABABA">
                <tspan x="40" y="205">1</tspan>
            </text>
            <text font-size="11" font-weight="normal" fill="#BABABA">
                <tspan x="144" y="205">3</tspan>
            </text>
            <text font-size="11" font-weight="normal" fill="#BABABA">
                <tspan x="248" y="205">5</tspan>
            </text>
            <path d="M17,183 L17,182 L21,182 L21,25 L17,25 L17,24 L26,24 L26,25 L22,25 L22,182 L26,182 L26,183 L17,183 Z" fill="#BABABA" fill-rule="nonzero"></path>
            <path d="M324,187 L323,187 L323,183 L20.5,183 L20.5,182 L323,182 L323,178 L324,178 L324,187 Z" fill="#BABABA" fill-rule="nonzero"></path>
            <text font-size="11" font-weight="normal" fill="#636363">
                <tspan x="283" y="204">n（索引）</tspan>
            </text>
            <text font-size="13" font-weight="normal" fill="#636363">
                <tspan x="13" y="13">aₙ</tspan>
            </text>
            <circle fill="#333333" cx="43.5" cy="173.5" r="3"></circle>
            <circle fill="#333333" cx="96.5" cy="152.5" r="3"></circle>
            <circle fill="#333333" cx="147.5" cy="132.5" r="3"></circle>
            <circle fill="#333333" cx="199.5" cy="110.5" r="3"></circle>
            <circle fill="#333333" cx="250.5" cy="90.5" r="3"></circle>
            <circle fill="#333333" cx="303.5" cy="70.5" r="3"></circle>
            <polyline stroke="#333333" points="43.5 173.5 69.5 173.5 69.5 152.5 122.5 152.5 122.5 132.5 172.5 132.5 172.5 110.5 225.5 110.5 225.5 90.5 277.5 90.5 277.5 70.5 304.5 70.5"></polyline>
            <text font-size="11" font-weight="normal" line-spacing="13" fill="#636363">
                <tspan x="76" y="16.5">等差数列的相邻项</tspan>
                <tspan x="76" y="29.5">之间以固定增量增长。</tspan>
            </text>
            <line x1="147.5" y1="58" x2="147.5" y2="118" stroke="#BABABA" stroke-linecap="round"></line>
        </g>
    </g>
</svg>
