<?xml version="1.0" encoding="UTF-8"?>
<svg width="307px" height="192px" viewBox="0 0 307 192" version="1.1" xmlns="http://www.w3.org/2000/svg" xmlns:xlink="http://www.w3.org/1999/xlink">
    <g stroke="none" stroke-width="1" fill="none" fill-rule="evenodd">
        <g transform="translate(-107.000000, -119.000000)">
            <g transform="translate(108.000000, 119.000000)">
                <path d="M66,112 L66,167 L191,167 L191,156 C167.666667,153.333333 156,152 156,152 C134,148 123,146 123,146 C103.666667,139.333333 94,136 94,136 L77,124 L66,112 Z" fill="#e9e3e2"></path>
                <path d="M25.882134,5.67699263 L25.9357878,5.75486938 L30.4357878,13.7548694 C30.5711697,13.9955483 30.4858096,14.3004059 30.2451306,14.4357878 C30.0311938,14.5561272 29.7665479,14.5020533 29.6152959,14.3195146 L29.5642122,14.2451306 L25.999,7.906 L26,191.5 C26,191.776142 25.7761424,192 25.5,192 C25.2545401,192 25.0503916,191.823125 25.0080557,191.589876 L25,191.5 L24.999,7.91 L21.4357878,14.2451306 C21.3154483,14.4590675 21.0612021,14.5502832 20.8371522,14.4728292 L20.7548694,14.4357878 C20.5409325,14.3154483 20.4497168,14.0612021 20.5271708,13.8371522 L20.5642122,13.7548694 L25.0642122,5.75486938 C25.2394349,5.44336236 25.6651608,5.41740344 25.882134,5.67699263 Z" fill="#beb8b7" fill-rule="nonzero"></path>
                <path d="M295.162848,161.527171 L295.245131,161.564212 L303.245131,166.064212 C303.556638,166.239435 303.582597,166.665161 303.323007,166.882134 L303.245131,166.935788 L295.245131,171.435788 C295.004452,171.57117 294.699594,171.48581 294.564212,171.245131 C294.443873,171.031194 294.497947,170.766548 294.680485,170.615296 L294.754869,170.564212 L301.091,167 L3.85379111e-16,167 C-0.276142375,167 -0.5,166.776142 -0.5,166.5 C-0.5,166.25454 -0.323124839,166.050392 -0.0898756324,166.008056 L-3.85379111e-16,166 L301.091,166 L294.754869,162.435788 C294.540933,162.315448 294.449717,162.061202 294.527171,161.837152 L294.564212,161.754869 C294.684552,161.540933 294.938798,161.449717 295.162848,161.527171 Z" fill="#beb8b7" fill-rule="nonzero"></path>
                <text font-size="14" font-weight="normal" fill="#beb8b7">
                    <tspan x="296.5" y="186">x</tspan>
                </text>
                <text font-size="14" font-weight="normal" fill="#beb8b7">
                    <tspan x="7.5" y="14">y</tspan>
                </text>
                <text font-size="11" font-weight="normal" line-spacing="13" fill="#636060">
                    <tspan x="98" y="93">曲线下的面积</tspan>
                    <tspan x="98" y="106">随 b → +∞ 延伸</tspan>
                </text>
                <line x1="118.5" y1="112.5" x2="118.5" y2="157.5" stroke="#beb8b7" stroke-linecap="round"></line>
                <text font-size="13" font-weight="normal" fill="#312f2f">
                    <tspan x="35.5" y="56">y=f(x)</tspan>
                </text>
                <line x1="66.5" y1="112.5" x2="66.5" y2="166.5" stroke="#beb8b7" stroke-linecap="square" stroke-dasharray="4"></line>
                <line x1="190.5" y1="155.521978" x2="190.5" y2="166.5" stroke="#beb8b7" stroke-linecap="square" stroke-dasharray="4"></line>
                <text font-size="13" font-weight="normal" fill="#312f2f">
                    <tspan x="62" y="185">a</tspan>
                </text>
                <text font-size="13" font-weight="normal" fill="#312f2f">
                    <tspan x="188" y="184">b</tspan>
                </text>
                <path d="M45,9 C45.2777854,23.2872987 45.6944636,33.6607822 46.2500345,40.1204504" stroke="#000000" stroke-width="2" stroke-linecap="round"></path>
                <circle fill="#312f2f" cx="190.5" cy="166.5" r="2.5"></circle>
                <circle fill="#312f2f" cx="66.5" cy="166.5" r="2.5"></circle>
                <path d="M49.4900162,64.4990616 C56.7808747,103.57456 72.9508694,128.074873 98,138 C133.333333,152 196.333333,159 287,159" stroke="#312f2f" stroke-width="2" stroke-linecap="round"></path>
            </g>
        </g>
    </g>
</svg>
