<?xml version="1.0" encoding="UTF-8"?>
<svg width="306px" height="284px" viewBox="0 0 306 284" version="1.1" xmlns="http://www.w3.org/2000/svg" xmlns:xlink="http://www.w3.org/1999/xlink">
    <g stroke="none" stroke-width="1" fill="none" fill-rule="evenodd">
        <g transform="translate(1.000000, 0.000000)">
            <text font-size="11" font-weight="normal" line-spacing="13" fill="#636060">
                <tspan x="29" y="11">矩形的面积等于底乘以高。</tspan>
                <tspan x="29" y="24">曲线将它分成两个区域，</tspan>
                <tspan x="29" y="37">它们的面积分别对应分部积分</tspan>
                <tspan x="29" y="50">公式中的两个积分。</tspan>
            </text>
            <line x1="111.5" y1="62" x2="111.5" y2="125.5" stroke="#beb8b7" stroke-linecap="round" stroke-linejoin="round"></line>
            <path d="M34,260 L44,231 C56.6666667,211.666667 63,202 63,202 C73.6666667,186.666667 79,179 79,179 C96.3333333,165 105,158 105,158 C121,147.333333 129,142 129,142 C157.666667,129.333333 172,123 172,123 C196,117 208,114 208,114 C226.666667,111.333333 236,110 236,110 L257,110 L257,260 C108.333333,260 34,260 34,260 Z" fill="#e9e3e2"></path>
            <text fill="#312f2f" fill-rule="nonzero" font-size="12" font-weight="normal">
                <tspan x="152" y="221">∫udv</tspan>
            </text>
            <text fill="#312f2f" fill-rule="nonzero" font-size="12" font-weight="normal">
                <tspan x="65" y="147">∫vdv</tspan>
            </text>
            <text fill="#312f2f" fill-rule="nonzero" font-size="12" font-weight="normal">
                <tspan x="5" y="111">u(b)</tspan>
            </text>
            <text fill="#312f2f" fill-rule="nonzero" font-size="12" font-weight="normal">
                <tspan x="246" y="275">v(b)</tspan>
            </text>
            <line x1="257.5" y1="108.5" x2="32.5" y2="108.5" stroke="#beb8b7" stroke-linecap="round" stroke-linejoin="round" stroke-dasharray="4"></line>
            <line x1="257.5" y1="109.5" x2="257.5" y2="259.5" stroke="#beb8b7" stroke-linecap="round" stroke-linejoin="round" stroke-dasharray="4"></line>
            <path d="M34,259 C49.3333333,209.666667 78.3333333,172.333333 121,147 C163.666667,121.666667 209,109 257,109" stroke="#312f2f" stroke-width="2" stroke-linecap="round" stroke-linejoin="round"></path>
            <path d="M33.882134,73.6769926 L33.9357878,73.7548694 L38.4357878,81.7548694 C38.5711697,81.9955483 38.4858096,82.3004059 38.2451306,82.4357878 C38.0311938,82.5561272 37.7665479,82.5020533 37.6152959,82.3195146 L37.5642122,82.2451306 L33.999,75.906 L34,280.5 C34,280.776142 33.7761424,281 33.5,281 C33.2545401,281 33.0503916,280.823125 33.0080557,280.589876 L33,280.5 L32.999,75.91 L29.4357878,82.2451306 C29.3154483,82.4590675 29.0612021,82.5502832 28.8371522,82.4728292 L28.7548694,82.4357878 C28.5409325,82.3154483 28.4497168,82.0612021 28.5271708,81.8371522 L28.5642122,81.7548694 L33.0642122,73.7548694 C33.2394349,73.4433624 33.6651608,73.4174034 33.882134,73.6769926 Z" fill="#beb8b7" fill-rule="nonzero"></path>
            <path d="M295.162848,254.527171 L295.245131,254.564212 L303.245131,259.064212 C303.556638,259.239435 303.582597,259.665161 303.323007,259.882134 L303.245131,259.935788 L295.245131,264.435788 C295.004452,264.57117 294.699594,264.48581 294.564212,264.245131 C294.443873,264.031194 294.497947,263.766548 294.680485,263.615296 L294.754869,263.564212 L301.091,260 L2.89034333e-16,260 C-0.276142375,260 -0.5,259.776142 -0.5,259.5 C-0.5,259.25454 -0.323124839,259.050392 -0.0898756324,259.008056 L-2.89034333e-16,259 L301.091,259 L294.754869,255.435788 C294.540933,255.315448 294.449717,255.061202 294.527171,254.837152 L294.564212,254.754869 C294.684552,254.540933 294.938798,254.449717 295.162848,254.527171 Z" fill="#beb8b7" fill-rule="nonzero"></path>
            <text font-size="14" font-weight="normal" fill="#beb8b7">
                <tspan x="296.5" y="280">v</tspan>
            </text>
            <text font-size="14" font-weight="normal" fill="#beb8b7">
                <tspan x="15.5" y="82">u</tspan>
            </text>
            <circle fill="#312f2f" cx="33.5" cy="108.5" r="2.5"></circle>
            <circle fill="#312f2f" cx="257.5" cy="259.5" r="2.5"></circle>
        </g>
    </g>
</svg>
