<?xml version="1.0" encoding="UTF-8"?>
<svg width="346px" height="238px" viewBox="0 0 346 238" version="1.1" xmlns="http://www.w3.org/2000/svg" xmlns:xlink="http://www.w3.org/1999/xlink">
    <g stroke="none" stroke-width="1" fill="none" fill-rule="evenodd">
        <g transform="translate(0.500000, 0.000000)">
            <path d="M161.382134,5.67699263 L161.435788,5.75486938 L165.935788,13.7548694 C166.07117,13.9955483 165.98581,14.3004059 165.745131,14.4357878 C165.531194,14.5561272 165.266548,14.5020533 165.115296,14.3195146 L165.064212,14.2451306 L161.499,7.906 L161.5,235.5 C161.5,235.776142 161.276142,236 161,236 C160.75454,236 160.550392,235.823125 160.508056,235.589876 L160.5,235.5 L160.499,7.91 L156.935788,14.2451306 C156.815448,14.4590675 156.561202,14.5502832 156.337152,14.4728292 L156.254869,14.4357878 C156.040933,14.3154483 155.949717,14.0612021 156.027171,13.8371522 L156.064212,13.7548694 L160.564212,5.75486938 C160.739435,5.44336236 161.165161,5.41740344 161.382134,5.67699263 Z" fill="#BABABA" fill-rule="nonzero"></path>
            <path d="M334.662848,187.527171 L334.745131,187.564212 L342.745131,192.064212 C343.056638,192.239435 343.082597,192.665161 342.823007,192.882134 L342.745131,192.935788 L334.745131,197.435788 C334.504452,197.57117 334.199594,197.48581 334.064212,197.245131 C333.943873,197.031194 333.997947,196.766548 334.180485,196.615296 L334.254869,196.564212 L340.591,193 L0,193 C-0.276142375,193 -0.5,192.776142 -0.5,192.5 C-0.5,192.25454 -0.323124839,192.050392 -0.0898756324,192.008056 L0,192 L340.591,192 L334.254869,188.435788 C334.040933,188.315448 333.949717,188.061202 334.027171,187.837152 L334.064212,187.754869 C334.184552,187.540933 334.438798,187.449717 334.662848,187.527171 Z" fill="#BABABA" fill-rule="nonzero"></path>
            <text font-size="13" font-weight="normal" fill="#333333">
                <tspan x="150" y="162">1</tspan>
            </text>
            <path d="M109,236.5 L117.958925,224.469443 M132.627925,204.771072 L220.727997,86.4652611 M236.068159,65.8656149 L249,48.5" stroke="#333333" stroke-width="2" stroke-linecap="round"></path>
            <text font-size="13" font-weight="normal" fill="#333333">
                <tspan x="197" y="80">y = 2x+1</tspan>
            </text>
            <text font-size="13" font-weight="normal" fill="#333333">
                <tspan x="116" y="219">0.5</tspan>
            </text>
            <circle fill="#333333" cx="161.5" cy="166" r="3"></circle>
            <ellipse fill="#333333" cx="141.494536" cy="193" rx="2.99453552" ry="3"></ellipse>
            <text font-size="14" font-weight="normal" fill="#BABABA">
                <tspan x="142" y="14">y</tspan>
            </text>
            <text font-size="14" font-weight="normal" fill="#BABABA">
                <tspan x="336" y="212">x</tspan>
            </text>
            <text font-size="11" font-weight="normal" line-spacing="13" fill="#636363">
                <tspan x="11.577" y="83.3620148">一次多项式</tspan>
                <tspan x="13.084" y="96.3620148">表示一条直线</tspan>
                <tspan x="17" y="109.362015">方程为 y = mx + q</tspan>
            </text>
            <line x1="132" y1="121.5" x2="132.5" y2="174" stroke="#636363" stroke-linecap="round"></line>
        </g>
    </g>
</svg>