<?xml version="1.0" encoding="UTF-8"?>
<svg width="292px" height="242px" viewBox="0 0 292 242" version="1.1" xmlns="http://www.w3.org/2000/svg" xmlns:xlink="http://www.w3.org/1999/xlink">
    <g stroke="none" stroke-width="1" fill="none" fill-rule="evenodd">
        <g>
            <line x1="62.5" y1="142.5" x2="123.5" y2="191.5" stroke="#BABABA" stroke-linecap="round" stroke-linejoin="round" stroke-dasharray="4"></line>
            <line x1="188.5" y1="78.5" x2="249.5" y2="127.5" stroke="#BABABA" stroke-linecap="round" stroke-linejoin="round" stroke-dasharray="4"></line>
            <path d="M64.5,140.5 L122.986308,111.744232 M134.159313,106.250838 L173.322246,86.995729" stroke="#333333" stroke-linecap="round" stroke-linejoin="round"></path>
            <path d="M175.811718,80.2716317 L184.9764,80.7801575 C185.335754,80.8000971 185.547339,81.175751 185.404241,81.486277 L185.360958,81.5623081 L180.167264,89.1303688 C180.011012,89.3580529 179.699771,89.4159604 179.472087,89.2597088 C179.269701,89.1208185 179.20146,88.8594672 179.298534,88.643194 L179.342747,88.5645318 L183.456,82.569 L178.033901,85.2363314 L171.008151,88.6906584 C170.760341,88.8124982 170.460681,88.7103794 170.338841,88.4625696 C170.230539,88.2422943 170.299192,87.9810507 170.48983,87.8401441 L170.56693,87.7932599 L177.59268,84.3389329 L183.015,81.673 L175.756316,81.2700958 C175.511233,81.2564967 175.317197,81.0685829 175.287849,80.8333464 L175.284785,80.7431625 C175.300084,80.4674443 175.536,80.2563327 175.811718,80.2716317 Z" fill="#333333" fill-rule="nonzero"></path>
            <circle fill="#333333" cx="61.5" cy="141.5" r="3"></circle>
            <text font-size="13" font-weight="normal" fill="#333333">
                <tspan x="125.5" y="112">v</tspan>
            </text>
            <circle fill="#333333" cx="188.5" cy="78.5" r="3"></circle>
            <path d="M127.5,190.5 L185.986308,161.744232 M197.159313,156.250838 L236.322246,136.995729" stroke="#333333" stroke-linecap="round" stroke-linejoin="round"></path>
            <path d="M238.811718,130.271632 L247.9764,130.780157 C248.335754,130.800097 248.547339,131.175751 248.404241,131.486277 L248.360958,131.562308 L243.167264,139.130369 C243.011012,139.358053 242.699771,139.41596 242.472087,139.259709 C242.269701,139.120819 242.20146,138.859467 242.298534,138.643194 L242.342747,138.564532 L246.456,132.569 L241.033901,135.236331 L234.008151,138.690658 C233.760341,138.812498 233.460681,138.710379 233.338841,138.46257 C233.230539,138.242294 233.299192,137.981051 233.48983,137.840144 L233.56693,137.79326 L240.59268,134.338933 L246.015,131.673 L238.756316,131.270096 C238.511233,131.256497 238.317197,131.068583 238.287849,130.833346 L238.284785,130.743163 C238.300084,130.467444 238.536,130.256333 238.811718,130.271632 Z" fill="#333333" fill-rule="nonzero"></path>
            <circle fill="#333333" cx="124.5" cy="191.5" r="3"></circle>
            <text font-size="13" font-weight="normal" fill="#333333">
                <tspan x="188.5" y="162">v</tspan>
            </text>
            <circle fill="#333333" cx="251.5" cy="128.5" r="3"></circle>
            <text font-size="11" font-weight="normal" line-spacing="13" fill="#636363">
                <tspan x="50" y="11">两条线段的方向和模都相同，</tspan>
                <tspan x="50" y="24">所以无论位于何处，</tspan>
                <tspan x="50" y="37">都表示同一个向量。</tspan>
            </text>
            <line x1="86.5" y1="46.5" x2="86.5" y2="112.5" stroke="#BABABA" stroke-linecap="round"></line>
            <path d="M251.809343,213.319082 L252.245131,213.564212 L260.245131,218.064212 L261.019864,218.5 L260.245131,218.935788 L252.245131,223.435788 L251.809343,223.680918 L251.319082,222.809343 L251.754869,222.564212 L258.089,219 L8.5,219 L8.5,218 L258.093,218 L251.754869,214.435788 L251.319082,214.190657 L251.809343,213.319082 Z" fill="#BABABA" fill-rule="nonzero"></path>
            <text font-size="15" font-weight="normal" fill="#BABABA">
                <tspan x="0" y="26">y</tspan>
            </text>
            <text font-size="15" font-weight="normal" fill="#BABABA">
                <tspan x="255" y="238">x</tspan>
            </text>
            <path d="M22.5,16.9801356 L22.9357878,17.7548694 L27.4357878,25.7548694 L27.6809184,26.1906571 L26.8093429,26.6809184 L26.5642122,26.2451306 L23,19.908 L23,239 L22,239 L22,19.908 L18.4357878,26.2451306 L18.1906571,26.6809184 L17.3190816,26.1906571 L17.5642122,25.7548694 L22.0642122,17.7548694 L22.5,16.9801356 Z" fill="#BABABA" fill-rule="nonzero"></path>
        </g>
    </g>
</svg>
